<?xml version="1.0" encoding="utf-8"?>
<!-- Generator: Adobe Illustrator 26.1.0, SVG Export Plug-In . SVG Version: 6.00 Build 0)  -->
<svg version="1.1" id="Layer_1" xmlns="http://www.w3.org/2000/svg" xmlns:xlink="http://www.w3.org/1999/xlink" x="0px" y="0px"
	 viewBox="0 0 130 130" style="enable-background:new 0 0 130 130;" xml:space="preserve">
<style type="text/css">
	.st0{fill-rule:evenodd;clip-rule:evenodd;fill:#181616;}
	.st1{fill:#181616;}
</style>
<g>
	<path class="st0" d="M65.2,5.7c-33.3,0-60.4,27-60.4,60.4c0,26.7,17.3,49.3,41.3,57.3c3,0.6,4.1-1.3,4.1-2.9
		c0-1.4-0.1-6.2-0.1-11.2c-16.8,3.7-20.3-7.1-20.3-7.1c-2.7-7-6.7-8.8-6.7-8.8c-5.5-3.7,0.4-3.7,0.4-3.7c6.1,0.4,9.3,6.2,9.3,6.2
		c5.4,9.2,14.1,6.6,17.6,5c0.5-3.9,2.1-6.6,3.8-8.1c-13.4-1.5-27.5-6.7-27.5-29.8c0-6.6,2.4-12,6.2-16.2c-0.6-1.5-2.7-7.7,0.6-16
		c0,0,5.1-1.6,16.6,6.2c4.8-1.3,10-2,15.1-2c5.1,0,10.3,0.7,15.1,2c11.5-7.8,16.6-6.2,16.6-6.2c3.3,8.3,1.2,14.5,0.6,16
		c3.9,4.2,6.2,9.6,6.2,16.2c0,23.2-14.1,28.3-27.6,29.8c2.2,1.9,4.1,5.5,4.1,11.2c0,8.1-0.1,14.6-0.1,16.6c0,1.6,1.1,3.5,4.1,2.9
		c24-8,41.3-30.6,41.3-57.3C125.6,32.7,98.5,5.7,65.2,5.7z"/>
	<path class="st1" d="M27.7,92.4c-0.1,0.3-0.6,0.4-1,0.2c-0.4-0.2-0.7-0.6-0.5-0.9c0.1-0.3,0.6-0.4,1-0.2
		C27.6,91.7,27.8,92.1,27.7,92.4L27.7,92.4z M26.9,91.8"/>
	<path class="st1" d="M30.1,95.1c-0.3,0.3-0.9,0.1-1.2-0.3c-0.4-0.4-0.5-1-0.2-1.3c0.3-0.3,0.8-0.1,1.2,0.3
		C30.3,94.3,30.4,94.8,30.1,95.1L30.1,95.1z M29.5,94.5"/>
	<path class="st1" d="M32.5,98.6c-0.4,0.3-1,0-1.3-0.5c-0.4-0.5-0.4-1.2,0-1.4c0.4-0.3,1,0,1.3,0.5C32.9,97.7,32.9,98.3,32.5,98.6
		L32.5,98.6z M32.5,98.6"/>
	<path class="st1" d="M35.8,102c-0.3,0.4-1,0.3-1.6-0.2c-0.5-0.5-0.7-1.2-0.3-1.5c0.3-0.4,1-0.3,1.6,0.2
		C36,100.9,36.1,101.6,35.8,102L35.8,102z M35.8,102"/>
	<path class="st1" d="M40.3,103.9c-0.1,0.5-0.8,0.7-1.5,0.5c-0.7-0.2-1.1-0.8-1-1.2c0.1-0.5,0.8-0.7,1.5-0.5
		C40,102.9,40.4,103.4,40.3,103.9L40.3,103.9z M40.3,103.9"/>
	<path class="st1" d="M45.2,104.3c0,0.5-0.6,0.9-1.3,0.9c-0.7,0-1.3-0.4-1.3-0.9c0-0.5,0.6-0.9,1.3-0.9
		C44.6,103.4,45.2,103.8,45.2,104.3L45.2,104.3z M45.2,104.3"/>
	<path class="st1" d="M49.8,103.5c0.1,0.5-0.4,1-1.1,1.1c-0.7,0.1-1.3-0.2-1.4-0.7c-0.1-0.5,0.4-1,1.1-1.1
		C49.1,102.7,49.7,103,49.8,103.5L49.8,103.5z M49.8,103.5"/>
</g>
</svg>
