<?xml version="1.0" encoding="utf-8"?>
<!-- Generator: Adobe Illustrator 26.1.0, SVG Export Plug-In . SVG Version: 6.00 Build 0)  -->
<svg version="1.1" id="Layer_1" xmlns="http://www.w3.org/2000/svg" xmlns:xlink="http://www.w3.org/1999/xlink" x="0px" y="0px"
	 viewBox="0 0 130 40" style="enable-background:new 0 0 130 40;" xml:space="preserve">
<style type="text/css">
	.st0{fill:#0F0D0E;}
</style>
<g>
	<path class="st0" d="M25.4,17.9H14.7c-0.3,0-0.5,0.2-0.5,0.5v5.3c0,0.3,0.2,0.5,0.5,0.5h4.2v6.6c0,0-0.9,0.3-3.5,0.3
		C12.3,31.2,8,30,8,20.5C8,11,12.4,9.7,16.6,9.7c3.6,0,5.2,0.6,6.2,1c0.3,0.1,0.6-0.2,0.6-0.5L24.6,5c0-0.1,0-0.3-0.2-0.4
		c-0.4-0.3-2.9-1.7-9.1-1.7C8.2,2.9,0.8,6,0.8,20.9c0,14.8,8.4,17.1,15.5,17.1c5.9,0,9.5-2.5,9.5-2.5c0.1-0.1,0.2-0.3,0.2-0.4V18.4
		C25.9,18.1,25.7,17.9,25.4,17.9z"/>
	<path class="st0" d="M80.9,4.7c0-0.3-0.2-0.5-0.5-0.5h-6.1c-0.3,0-0.5,0.2-0.5,0.5c0,0,0,11.8,0,11.8h-9.4V4.7
		c0-0.3-0.2-0.5-0.5-0.5h-6.1c-0.3,0-0.5,0.2-0.5,0.5v32c0,0.3,0.2,0.5,0.5,0.5h6.1c0.3,0,0.5-0.2,0.5-0.5V23.1h9.4
		c0,0,0,13.7,0,13.7c0,0.3,0.2,0.5,0.5,0.5h6.1c0.3,0,0.5-0.2,0.5-0.5V4.7z"/>
	<g>
		<g>
			<path class="st0" d="M36.9,8.9c0-2.2-1.7-4-3.9-4c-2.2,0-3.9,1.8-3.9,4c0,2.2,1.7,4,3.9,4C35.1,12.9,36.9,11.1,36.9,8.9z"/>
			<path class="st0" d="M36.4,30c0-0.8,0-14.8,0-14.8c0-0.3-0.2-0.5-0.5-0.5h-6c-0.3,0-0.5,0.3-0.5,0.6c0,0,0,17.8,0,21.2
				c0,0.6,0.4,0.8,0.9,0.8c0,0,2.6,0,5.4,0c0.6,0,0.7-0.3,0.7-0.8C36.4,35.3,36.4,30.9,36.4,30z"/>
		</g>
	</g>
	<path class="st0" d="M103.9,14.7h-6c-0.3,0-0.5,0.2-0.5,0.5V31c0,0-1.5,1.1-3.7,1.1c-2.2,0-2.7-1-2.7-3.1c0-2.1,0-13.7,0-13.7
		c0-0.3-0.2-0.5-0.5-0.5h-6.1c-0.3,0-0.5,0.2-0.5,0.5c0,0,0,8.4,0,14.7c0,6.4,3.5,7.9,8.3,7.9c4,0,7.2-2.2,7.2-2.2s0.2,1.2,0.2,1.3
		c0.1,0.1,0.2,0.3,0.4,0.3l3.9,0c0.3,0,0.5-0.2,0.5-0.5l0-21.5C104.4,15,104.1,14.7,103.9,14.7z"/>
	<path class="st0" d="M120.3,14c-3.4,0-5.7,1.5-5.7,1.5V4.7c0-0.3-0.2-0.5-0.5-0.5H108c-0.3,0-0.5,0.2-0.5,0.5v32
		c0,0.3,0.2,0.5,0.5,0.5c0,0,4.2,0,4.2,0c0.2,0,0.3-0.1,0.4-0.3c0.1-0.2,0.3-1.5,0.3-1.5s2.5,2.4,7.2,2.4c5.5,0,8.7-2.8,8.7-12.7
		C128.8,15.3,123.7,14,120.3,14z M117.9,32.1c-2.1-0.1-3.5-1-3.5-1V20.9c0,0,1.4-0.9,3.1-1c2.2-0.2,4.2,0.5,4.2,5.7
		C121.8,31.1,120.8,32.2,117.9,32.1z"/>
	<path class="st0" d="M53.8,14.7h-4.5c0,0,0-6.1,0-6.1c0-0.2-0.1-0.3-0.4-0.3h-6.2c-0.2,0-0.4,0.1-0.4,0.3v6.3c0,0-3.1,0.8-3.3,0.8
		c-0.2,0.1-0.4,0.3-0.4,0.5v3.9c0,0.3,0.2,0.5,0.5,0.5h3.2c0,0,0,4.1,0,9.5c0,7,4.9,7.7,8.2,7.7c1.5,0,3.3-0.5,3.6-0.6
		c0.2-0.1,0.3-0.3,0.3-0.5l0-4.3c0-0.3-0.2-0.5-0.5-0.5c-0.3,0-0.9,0.1-1.6,0.1c-2.2,0-3-1-3-2.4c0-1.4,0-9,0-9h4.5
		c0.3,0,0.5-0.2,0.5-0.5v-4.9C54.3,14.9,54.1,14.7,53.8,14.7z"/>
</g>
</svg>
