<?xml version="1.0" encoding="utf-8"?>
<!-- Generator: Adobe Illustrator 26.1.0, SVG Export Plug-In . SVG Version: 6.00 Build 0)  -->
<svg version="1.1" id="Layer_1" xmlns="http://www.w3.org/2000/svg" xmlns:xlink="http://www.w3.org/1999/xlink" x="0px" y="0px"
	 viewBox="0 0 184 125" style="enable-background:new 0 0 184 125;" xml:space="preserve">
<g id="Page-1">
	<g id="Black-Next.js" transform="translate(-247.000000, -138.000000)">
		<g id="next-black" transform="translate(247.000000, 138.000000)">
			<g id="EXT-_x2B_-Type-something">
				<path id="EXT" d="M49.3,32.5h39v3.1H52.9v23.2h33.3v3.1H52.9v25.5h35.8v3.1H49.3V32.5z M91.7,32.5h4.1L114.2,58L133,32.5
					l25.5-32.3l-41.9,60.5l21.6,29.8h-4.3l-19.6-27.1L94.5,90.4h-4.2L112,60.7L91.7,32.5z M139.7,35.6v-3.1h44.4v3.1h-20.5v54.8
					h-3.6V35.6H139.7z"/>
				<polygon id="Type-something" points="0.5,32.5 5,32.5 66.6,124.2 41.1,90.4 4.3,36.9 4.1,90.4 0.5,90.4 				"/>
			</g>
		</g>
	</g>
</g>
</svg>
