<?xml version="1.0" encoding="utf-8"?>
<!-- Generator: Adobe Illustrator 26.1.0, SVG Export Plug-In . SVG Version: 6.00 Build 0)  -->
<svg version="1.1" id="Layer_1" xmlns="http://www.w3.org/2000/svg" xmlns:xlink="http://www.w3.org/1999/xlink" x="0px" y="0px"
	 viewBox="0 0 444 272" style="enable-background:new 0 0 444 272;" xml:space="preserve">
<style type="text/css">
	.st0{fill:#679E63;}
	.st1{fill-rule:evenodd;clip-rule:evenodd;fill:#FFFFFF;}
	.st2{fill-rule:evenodd;clip-rule:evenodd;fill:#679E63;}
	.st3{clip-path:url(#XMLID_00000106838358455977990080000017948480954047343239_);}
	.st4{fill:none;}
	.st5{fill:url(#SVGID_1_);}
	.st6{fill:url(#SVGID_00000005951328172653828540000006847285208467513000_);}
	.st7{fill:url(#SVGID_00000150080159191887217520000017825294681116869553_);}
	.st8{fill:url(#SVGID_00000001622807274252860870000005510274746864902537_);}
	.st9{fill:url(#SVGID_00000109738537515183156090000003151025782678492847_);}
	.st10{fill:url(#SVGID_00000046297598008914738180000008569249488929351074_);}
</style>
<g>
	<path class="st0" d="M219.6,271.7c-1.5,0-2.9-0.4-4.2-1.1l-13.3-7.9c-2-1.1-1-1.5-0.4-1.7c2.7-0.9,3.2-1.1,6-2.7
		c0.3-0.2,0.7-0.1,1,0.1l10.2,6.1c0.4,0.2,0.9,0.2,1.2,0l39.9-23.1c0.4-0.2,0.6-0.6,0.6-1.1v-46.1c0-0.5-0.2-0.9-0.6-1.1l-39.9-23
		c-0.4-0.2-0.9-0.2-1.2,0l-39.9,23c-0.4,0.2-0.6,0.7-0.6,1.1v46.1c0,0.4,0.2,0.9,0.6,1.1l10.9,6.3c5.9,3,9.6-0.5,9.6-4v-45.5
		c0-0.6,0.5-1.2,1.2-1.2h5.1c0.6,0,1.2,0.5,1.2,1.2v45.5c0,7.9-4.3,12.5-11.8,12.5c-2.3,0-4.1,0-9.2-2.5l-10.5-6
		c-2.6-1.5-4.2-4.3-4.2-7.3v-46.1c0-3,1.6-5.8,4.2-7.3l39.9-23.1c2.5-1.4,5.9-1.4,8.4,0l39.9,23.1c2.6,1.5,4.2,4.3,4.2,7.3v46.1
		c0,3-1.6,5.8-4.2,7.3l-39.9,23.1C222.5,271.4,221,271.7,219.6,271.7z"/>
	<path class="st0" d="M231.9,240c-17.5,0-21.1-8-21.1-14.8c0-0.6,0.5-1.2,1.2-1.2h5.2c0.6,0,1.1,0.4,1.1,1c0.8,5.3,3.1,7.9,13.7,7.9
		c8.4,0,12-1.9,12-6.4c0-2.6-1-4.5-14.1-5.8c-10.9-1.1-17.7-3.5-17.7-12.2c0-8.1,6.8-12.9,18.2-12.9c12.8,0,19.1,4.4,19.9,14
		c0,0.3-0.1,0.6-0.3,0.9c-0.2,0.2-0.5,0.4-0.8,0.4h-5.2c-0.5,0-1-0.4-1.1-0.9c-1.2-5.5-4.3-7.3-12.5-7.3c-9.2,0-10.3,3.2-10.3,5.6
		c0,2.9,1.3,3.8,13.7,5.4c12.3,1.6,18.1,3.9,18.1,12.5C251.8,235,244.6,240,231.9,240z"/>
</g>
<g>
	<path class="st0" d="M289.5,191.6c0,4.2-3.5,7.7-7.7,7.7c-4.2,0-7.7-3.4-7.7-7.7c0-4.4,3.6-7.7,7.7-7.7
		C286,183.9,289.5,187.3,289.5,191.6z M275.4,191.6c0,3.6,2.9,6.5,6.4,6.5c3.6,0,6.5-3,6.5-6.5c0-3.6-2.9-6.4-6.5-6.4
		C278.3,185.2,275.4,188,275.4,191.6z M278.9,187.3h3c1,0,3,0,3,2.3c0,1.6-1,1.9-1.6,2.1c1.2,0.1,1.3,0.9,1.4,2
		c0.1,0.7,0.2,1.9,0.4,2.3h-1.8c0-0.4-0.3-2.6-0.3-2.7c-0.1-0.5-0.3-0.7-0.9-0.7h-1.5v3.5h-1.7V187.3z M280.5,191.1h1.3
		c1.1,0,1.3-0.8,1.3-1.2c0-1.2-0.8-1.2-1.3-1.2h-1.4V191.1z"/>
</g>
<path class="st1" d="M95.9,91.4c0-1.8-1-3.5-2.6-4.4L50.9,62.5c-0.7-0.4-1.5-0.6-2.3-0.7c-0.1,0-0.4,0-0.4,0c-0.8,0-1.6,0.3-2.3,0.7
	L3.5,86.9c-1.6,0.9-2.6,2.6-2.6,4.4L1,157c0,0.9,0.5,1.8,1.3,2.2c0.8,0.5,1.8,0.5,2.5,0L30,144.8c1.6-0.9,2.6-2.6,2.6-4.4v-30.7
	c0-1.8,1-3.5,2.6-4.4l10.7-6.2c0.8-0.5,1.7-0.7,2.6-0.7c0.9,0,1.8,0.2,2.5,0.7l10.7,6.2c1.6,0.9,2.6,2.6,2.6,4.4v30.7
	c0,1.8,1,3.5,2.6,4.4l25.2,14.4c0.8,0.5,1.8,0.5,2.6,0c0.8-0.4,1.3-1.3,1.3-2.2L95.9,91.4z"/>
<path class="st1" d="M299.7,1.1c-0.8-0.4-1.8-0.4-2.5,0c-0.8,0.5-1.3,1.3-1.3,2.2v65c0,0.6-0.3,1.2-0.9,1.6c-0.6,0.3-1.2,0.3-1.8,0
	l-10.6-6.1c-1.6-0.9-3.5-0.9-5.1,0l-42.4,24.5c-1.6,0.9-2.6,2.6-2.6,4.4v48.9c0,1.8,1,3.5,2.6,4.4l42.4,24.5c1.6,0.9,3.5,0.9,5.1,0
	l42.4-24.5c1.6-0.9,2.6-2.6,2.6-4.4V19.7c0-1.9-1-3.6-2.6-4.5L299.7,1.1z M295.7,125.5c0,0.5-0.2,0.9-0.6,1.1l-14.5,8.4
	c-0.4,0.2-0.9,0.2-1.3,0l-14.5-8.4c-0.4-0.2-0.6-0.7-0.6-1.1v-16.8c0-0.5,0.2-0.9,0.6-1.1l14.5-8.4c0.4-0.2,0.9-0.2,1.3,0l14.5,8.4
	c0.4,0.2,0.6,0.7,0.6,1.1V125.5z"/>
<g>
	<path class="st1" d="M440.7,108.3c1.6-0.9,2.5-2.6,2.5-4.4V92c0-1.8-1-3.5-2.5-4.4l-42.1-24.4c-1.6-0.9-3.5-0.9-5.1,0l-42.4,24.5
		c-1.6,0.9-2.6,2.6-2.6,4.4v48.9c0,1.8,1,3.5,2.6,4.4l42.1,24c1.6,0.9,3.5,0.9,5,0l25.5-14.2c0.8-0.4,1.3-1.3,1.3-2.2
		c0-0.9-0.5-1.8-1.3-2.2l-42.6-24.5c-0.8-0.5-1.3-1.3-1.3-2.2v-15.3c0-0.9,0.5-1.8,1.3-2.2l13.3-7.6c0.8-0.5,1.8-0.5,2.6,0l13.3,7.6
		c0.8,0.5,1.3,1.3,1.3,2.2v12.1c0,0.9,0.5,1.8,1.3,2.2c0.8,0.5,1.8,0.5,2.6,0L440.7,108.3z"/>
	<path class="st2" d="M395.5,106c0.3-0.2,0.7-0.2,1,0l8.1,4.7c0.3,0.2,0.5,0.5,0.5,0.9v9.4c0,0.4-0.2,0.7-0.5,0.9l-8.1,4.7
		c-0.3,0.2-0.7,0.2-1,0l-8.1-4.7c-0.3-0.2-0.5-0.5-0.5-0.9v-9.4c0-0.4,0.2-0.7,0.5-0.9L395.5,106z"/>
</g>
<g>
	<defs>
		<path id="XMLID_143_" d="M166.7,63.4c-1.6-0.9-3.5-0.9-5.1,0l-42.1,24.3c-1.6,0.9-2.5,2.6-2.5,4.4v48.7c0,1.8,1,3.5,2.5,4.4
			l42.1,24.3c1.6,0.9,3.5,0.9,5.1,0l42.1-24.3c1.6-0.9,2.5-2.6,2.5-4.4V92.1c0-1.8-1-3.5-2.5-4.4L166.7,63.4z"/>
	</defs>
	
		<linearGradient id="XMLID_00000137838212283057684480000005933278631079108535_" gradientUnits="userSpaceOnUse" x1="181.3117" y1="81.5091" x2="143.2468" y2="159.1615">
		<stop  offset="0" style="stop-color:#3F873F"/>
		<stop  offset="0.3296" style="stop-color:#3F8B3D"/>
		<stop  offset="0.6367" style="stop-color:#3E9638"/>
		<stop  offset="0.9341" style="stop-color:#3DA92E"/>
		<stop  offset="1" style="stop-color:#3DAE2B"/>
	</linearGradient>
	
		<use xlink:href="#XMLID_143_"  style="overflow:visible;fill-rule:evenodd;clip-rule:evenodd;fill:url(#XMLID_00000137838212283057684480000005933278631079108535_);"/>
	<clipPath id="XMLID_00000089546820609347861210000012803734941018981543_">
		<use xlink:href="#XMLID_143_"  style="overflow:visible;"/>
	</clipPath>
	<g style="clip-path:url(#XMLID_00000089546820609347861210000012803734941018981543_);">
		<path class="st4" d="M161.6,63.4l-42.2,24.3c-1.6,0.9-2.7,2.6-2.7,4.4v48.7c0,1.2,0.5,2.3,1.3,3.2l47.4-81.2
			C164.1,62.6,162.7,62.7,161.6,63.4z"/>
		<path class="st4" d="M165.6,170c0.4-0.1,0.8-0.3,1.2-0.5l42.2-24.3c1.6-0.9,2.6-2.6,2.6-4.4V92.1c0-1.3-0.6-2.6-1.5-3.5L165.6,170
			z"/>
		<linearGradient id="SVGID_1_" gradientUnits="userSpaceOnUse" x1="157.7676" y1="122.148" x2="264.5749" y2="43.2331">
			<stop  offset="0.1376" style="stop-color:#3F873F"/>
			<stop  offset="0.4016" style="stop-color:#52A044"/>
			<stop  offset="0.7129" style="stop-color:#64B749"/>
			<stop  offset="0.9081" style="stop-color:#6ABF4B"/>
		</linearGradient>
		<path class="st5" d="M208.9,87.7l-42.3-24.3c-0.4-0.2-0.9-0.4-1.3-0.5L117.9,144c0.4,0.5,0.9,0.9,1.4,1.2l42.3,24.3
			c1.2,0.7,2.6,0.9,3.9,0.5l44.5-81.4C209.7,88.3,209.4,88,208.9,87.7z"/>
	</g>
	<g style="clip-path:url(#XMLID_00000089546820609347861210000012803734941018981543_);">
		<path class="st4" d="M211.6,140.8V92.1c0-1.8-1.1-3.5-2.7-4.4l-42.3-24.3c-0.5-0.3-1-0.5-1.6-0.6l46.3,79.1
			C211.5,141.6,211.6,141.2,211.6,140.8z"/>
		<path class="st4" d="M119.3,87.7c-1.6,0.9-2.7,2.6-2.7,4.4v48.7c0,1.8,1.2,3.5,2.7,4.4l42.3,24.3c1,0.6,2.1,0.8,3.3,0.6
			l-45.3-82.6L119.3,87.7z"/>
		
			<linearGradient id="SVGID_00000114786553787209085480000004053788589469720223_" gradientUnits="userSpaceOnUse" x1="115.4723" y1="54.6289" x2="212.8893" y2="54.6289">
			<stop  offset="9.191646e-02" style="stop-color:#6ABF4B"/>
			<stop  offset="0.2871" style="stop-color:#64B749"/>
			<stop  offset="0.5984" style="stop-color:#52A044"/>
			<stop  offset="0.8624" style="stop-color:#3F873F"/>
		</linearGradient>
		<polygon style="fill:url(#SVGID_00000114786553787209085480000004053788589469720223_);" points="160.2,54.5 159.7,54.8 
			160.4,54.8 		"/>
		
			<linearGradient id="SVGID_00000062187803563745721280000007285026856291585688_" gradientUnits="userSpaceOnUse" x1="115.4723" y1="116.4461" x2="212.8893" y2="116.4461">
			<stop  offset="9.191646e-02" style="stop-color:#6ABF4B"/>
			<stop  offset="0.2871" style="stop-color:#64B749"/>
			<stop  offset="0.5984" style="stop-color:#52A044"/>
			<stop  offset="0.8624" style="stop-color:#3F873F"/>
		</linearGradient>
		<path style="fill:url(#SVGID_00000062187803563745721280000007285026856291585688_);" d="M209,145.2c1.2-0.7,2.1-1.9,2.5-3.2
			l-46.3-79.1c-1.2-0.2-2.5-0.1-3.6,0.6l-42,24.2l45.3,82.6c0.6-0.1,1.3-0.3,1.9-0.6L209,145.2z"/>
		
			<linearGradient id="SVGID_00000097462874335367815180000017376437417989431452_" gradientUnits="userSpaceOnUse" x1="115.4723" y1="144.2567" x2="212.8893" y2="144.2567">
			<stop  offset="9.191646e-02" style="stop-color:#6ABF4B"/>
			<stop  offset="0.2871" style="stop-color:#64B749"/>
			<stop  offset="0.5984" style="stop-color:#52A044"/>
			<stop  offset="0.8624" style="stop-color:#3F873F"/>
		</linearGradient>
		<polygon style="fill:url(#SVGID_00000097462874335367815180000017376437417989431452_);" points="212.9,144.4 212.6,143.9 
			212.6,144.6 		"/>
		
			<linearGradient id="SVGID_00000149377101706738021270000003666166969648489390_" gradientUnits="userSpaceOnUse" x1="115.4723" y1="156.8263" x2="212.8893" y2="156.8263">
			<stop  offset="9.191646e-02" style="stop-color:#6ABF4B"/>
			<stop  offset="0.2871" style="stop-color:#64B749"/>
			<stop  offset="0.5984" style="stop-color:#52A044"/>
			<stop  offset="0.8624" style="stop-color:#3F873F"/>
		</linearGradient>
		<path style="fill:url(#SVGID_00000149377101706738021270000003666166969648489390_);" d="M209,145.2l-42.2,24.3
			c-0.6,0.3-1.2,0.5-1.9,0.6l0.8,1.5l46.8-27.1v-0.6l-1.2-2C211.1,143.3,210.2,144.5,209,145.2z"/>
		
			<linearGradient id="SVGID_00000145055865617842174060000004907782261127361444_" gradientUnits="userSpaceOnUse" x1="227.0817" y1="79.2069" x2="167.0011" y2="201.7713">
			<stop  offset="0" style="stop-color:#3F873F"/>
			<stop  offset="0.3296" style="stop-color:#3F8B3D"/>
			<stop  offset="0.6367" style="stop-color:#3E9638"/>
			<stop  offset="0.9341" style="stop-color:#3DA92E"/>
			<stop  offset="1" style="stop-color:#3DAE2B"/>
		</linearGradient>
		<path style="fill:url(#SVGID_00000145055865617842174060000004907782261127361444_);" d="M209,145.2l-42.2,24.3
			c-0.6,0.3-1.2,0.5-1.9,0.6l0.8,1.5l46.8-27.1v-0.6l-1.2-2C211.1,143.3,210.2,144.5,209,145.2z"/>
	</g>
</g>
</svg>
