<?xml version="1.0" encoding="utf-8"?>
<!-- Generator: Adobe Illustrator 26.1.0, SVG Export Plug-In . SVG Version: 6.00 Build 0)  -->
<svg version="1.1" id="Layer_1" xmlns="http://www.w3.org/2000/svg" xmlns:xlink="http://www.w3.org/1999/xlink" x="0px" y="0px"
	 viewBox="0 0 95 108" style="enable-background:new 0 0 95 108;" xml:space="preserve">
<style type="text/css">
	.st0{clip-path:url(#XMLID_00000158000786564058489770000006460343193845375111_);}
	.st1{fill:none;}
	.st2{fill:url(#SVGID_1_);}
	.st3{fill:url(#SVGID_00000088113115810345809970000011016934798777509523_);}
	.st4{fill:url(#SVGID_00000024690176375237244440000009323609286422972863_);}
	.st5{fill:url(#SVGID_00000072965623692454495440000011300478822797577859_);}
	.st6{fill:url(#SVGID_00000063618966531569113980000001729546958360911273_);}
	.st7{fill:url(#SVGID_00000080184549756400039460000018291219457364256904_);}
</style>
<g>
	<defs>
		<path id="XMLID_143_" d="M50,1.7c-1.5-0.9-3.5-0.9-5,0L3.5,25.5C2,26.4,1,28.1,1,29.8v47.7c0,1.8,1,3.4,2.5,4.3l41.4,23.9
			c1.5,0.9,3.5,0.9,5,0l41.4-23.9c1.5-0.9,2.5-2.5,2.5-4.3V29.8c0-1.8-1-3.4-2.5-4.3L50,1.7z"/>
	</defs>
	
		<linearGradient id="XMLID_00000103243217662981616640000014613265614924937100_" gradientUnits="userSpaceOnUse" x1="64.2506" y1="19.4265" x2="26.9135" y2="95.5943">
		<stop  offset="0" style="stop-color:#3F873F"/>
		<stop  offset="0.3296" style="stop-color:#3F8B3D"/>
		<stop  offset="0.6367" style="stop-color:#3E9638"/>
		<stop  offset="0.9341" style="stop-color:#3DA92E"/>
		<stop  offset="1" style="stop-color:#3DAE2B"/>
	</linearGradient>
	
		<use xlink:href="#XMLID_143_"  style="overflow:visible;fill-rule:evenodd;clip-rule:evenodd;fill:url(#XMLID_00000103243217662981616640000014613265614924937100_);"/>
	<clipPath id="XMLID_00000076585062959491367950000012448386757509634984_">
		<use xlink:href="#XMLID_143_"  style="overflow:visible;"/>
	</clipPath>
	<g style="clip-path:url(#XMLID_00000076585062959491367950000012448386757509634984_);">
		<path class="st1" d="M44.9,1.7L3.3,25.5c-1.5,0.9-2.7,2.5-2.7,4.3v47.7c0,1.2,0.5,2.3,1.3,3.2L48.6,1.2C47.4,0.8,46,1,44.9,1.7z"
			/>
		<path class="st1" d="M48.8,106.2c0.4-0.1,0.8-0.3,1.2-0.5l41.5-23.9c1.5-0.9,2.6-2.5,2.6-4.3V29.8c0-1.3-0.6-2.5-1.5-3.5
			L48.8,106.2z"/>
		<linearGradient id="SVGID_1_" gradientUnits="userSpaceOnUse" x1="41.1446" y1="59.3001" x2="146.1148" y2="-18.2575">
			<stop  offset="0.1376" style="stop-color:#3F873F"/>
			<stop  offset="0.4016" style="stop-color:#52A044"/>
			<stop  offset="0.7129" style="stop-color:#64B749"/>
			<stop  offset="0.9081" style="stop-color:#6ABF4B"/>
		</linearGradient>
		<path class="st2" d="M91.5,25.5L49.9,1.7c-0.4-0.2-0.8-0.4-1.3-0.5L1.9,80.7c0.4,0.5,0.9,0.8,1.4,1.1L45,105.8
			c1.2,0.7,2.6,0.8,3.9,0.5l43.7-79.9C92.3,26,91.9,25.8,91.5,25.5z"/>
	</g>
	<g style="clip-path:url(#XMLID_00000076585062959491367950000012448386757509634984_);">
		<path class="st1" d="M94.1,77.6V29.8c0-1.8-1.1-3.4-2.6-4.3L49.9,1.7c-0.5-0.3-1-0.5-1.5-0.6l45.6,77.6C94,78.3,94.1,78,94.1,77.6
			z"/>
		<path class="st1" d="M3.3,25.5c-1.5,0.9-2.7,2.5-2.7,4.3v47.7c0,1.8,1.1,3.4,2.7,4.3L45,105.8c1,0.6,2.1,0.8,3.2,0.6l-44.6-81
			L3.3,25.5z"/>
		
			<linearGradient id="SVGID_00000041253223122199120220000017790670509053150135_" gradientUnits="userSpaceOnUse" x1="-0.4663" y1="-6.9362" x2="95.3608" y2="-6.9362">
			<stop  offset="9.191646e-02" style="stop-color:#6ABF4B"/>
			<stop  offset="0.2871" style="stop-color:#64B749"/>
			<stop  offset="0.5984" style="stop-color:#52A044"/>
			<stop  offset="0.8624" style="stop-color:#3F873F"/>
		</linearGradient>
		<polygon style="fill:url(#SVGID_00000041253223122199120220000017790670509053150135_);" points="43.6,-7.1 43,-6.8 43.8,-6.8 		
			"/>
		
			<linearGradient id="SVGID_00000076587292583949854460000013617980622315496591_" gradientUnits="userSpaceOnUse" x1="-0.4663" y1="53.6956" x2="95.3608" y2="53.6956">
			<stop  offset="9.191646e-02" style="stop-color:#6ABF4B"/>
			<stop  offset="0.2871" style="stop-color:#64B749"/>
			<stop  offset="0.5984" style="stop-color:#52A044"/>
			<stop  offset="0.8624" style="stop-color:#3F873F"/>
		</linearGradient>
		<path style="fill:url(#SVGID_00000076587292583949854460000013617980622315496591_);" d="M91.5,81.9c1.2-0.7,2.1-1.9,2.5-3.2
			L48.4,1.1c-1.2-0.2-2.5-0.1-3.5,0.6L3.6,25.4l44.6,81c0.6-0.1,1.3-0.3,1.8-0.6L91.5,81.9z"/>
		
			<linearGradient id="SVGID_00000005246903211813498920000005607381754805193611_" gradientUnits="userSpaceOnUse" x1="-0.4663" y1="80.9728" x2="95.3608" y2="80.9728">
			<stop  offset="9.191646e-02" style="stop-color:#6ABF4B"/>
			<stop  offset="0.2871" style="stop-color:#64B749"/>
			<stop  offset="0.5984" style="stop-color:#52A044"/>
			<stop  offset="0.8624" style="stop-color:#3F873F"/>
		</linearGradient>
		<polygon style="fill:url(#SVGID_00000005246903211813498920000005607381754805193611_);" points="95.4,81.1 95.1,80.7 95.1,81.3 
					"/>
		
			<linearGradient id="SVGID_00000144311307326237177180000005309205916671735729_" gradientUnits="userSpaceOnUse" x1="-0.4663" y1="93.3015" x2="95.3608" y2="93.3015">
			<stop  offset="9.191646e-02" style="stop-color:#6ABF4B"/>
			<stop  offset="0.2871" style="stop-color:#64B749"/>
			<stop  offset="0.5984" style="stop-color:#52A044"/>
			<stop  offset="0.8624" style="stop-color:#3F873F"/>
		</linearGradient>
		<path style="fill:url(#SVGID_00000144311307326237177180000005309205916671735729_);" d="M91.5,81.9L50,105.8
			c-0.6,0.3-1.2,0.5-1.8,0.6l0.8,1.5l46.1-26.6v-0.6l-1.1-1.9C93.6,80,92.7,81.2,91.5,81.9z"/>
		
			<linearGradient id="SVGID_00000101075500752354400220000001642858439687541657_" gradientUnits="userSpaceOnUse" x1="109.2589" y1="17.0753" x2="50.2567" y2="137.4397">
			<stop  offset="0" style="stop-color:#3F873F"/>
			<stop  offset="0.3296" style="stop-color:#3F8B3D"/>
			<stop  offset="0.6367" style="stop-color:#3E9638"/>
			<stop  offset="0.9341" style="stop-color:#3DA92E"/>
			<stop  offset="1" style="stop-color:#3DAE2B"/>
		</linearGradient>
		<path style="fill:url(#SVGID_00000101075500752354400220000001642858439687541657_);" d="M91.5,81.9L50,105.8
			c-0.6,0.3-1.2,0.5-1.8,0.6l0.8,1.5l46.1-26.6v-0.6l-1.1-1.9C93.6,80,92.7,81.2,91.5,81.9z"/>
	</g>
</g>
</svg>
