<?xml version="1.0" encoding="utf-8"?>
<!-- Generator: Adobe Illustrator 26.1.0, SVG Export Plug-In . SVG Version: 6.00 Build 0)  -->
<svg version="1.1" id="Layer_1" xmlns="http://www.w3.org/2000/svg" xmlns:xlink="http://www.w3.org/1999/xlink" x="0px" y="0px"
	 viewBox="0 0 130 130" style="enable-background:new 0 0 130 130;" xml:space="preserve">
<style type="text/css">
	.st0{fill-rule:evenodd;clip-rule:evenodd;fill:#8E75FF;}
	.st1{opacity:0.405;fill-rule:evenodd;clip-rule:evenodd;fill:#8E75FF;enable-background:new    ;}
</style>
<path id="Combined-Shape-Copy" class="st0" d="M86.1,87.7V46.4c0-1.5-1.2-2.7-2.7-2.7H42.4V1.1h83.5c1.5,0,2.7,1.2,2.7,2.7v83.9
	H86.1z"/>
<path id="Rectangle-Copy-6" class="st1" d="M42.4,1.1v42.6H3.2c-0.7,0-1.3-0.6-1.3-1.3c0-0.4,0.1-0.7,0.4-0.9L42.4,1.1z"/>
<path id="Rectangle-Copy-7" class="st1" d="M86.1,127V87.7h42.4L88.4,128"/>
<path id="Rectangle-Copy-8" class="st1" d="M42.4,43.7h42.4c0.7,0,1.3,0.6,1.3,1.3v42.6H45.1c-1.5,0-2.7-1.2-2.7-2.7V43.7z"/>
</svg>
