<?xml version="1.0" encoding="utf-8"?>
<!-- Generator: Adobe Illustrator 24.3.0, SVG Export Plug-In . SVG Version: 6.00 Build 0)  -->
<svg version="1.1" id="Layer_1" xmlns="http://www.w3.org/2000/svg" xmlns:xlink="http://www.w3.org/1999/xlink" x="0px" y="0px"
	 viewBox="0 0 160 72" style="enable-background:new 0 0 160 72;" xml:space="preserve">
<style type="text/css">
	.st0{fill-rule:evenodd;clip-rule:evenodd;fill:none;stroke:#0A72BA;stroke-width:0.5;stroke-linecap:square;}
	.st1{fill-rule:evenodd;clip-rule:evenodd;fill:none;stroke:#0A72BA;stroke-width:0.4;}
	.st2{fill-rule:evenodd;clip-rule:evenodd;fill:none;stroke:#0A72BA;stroke-width:0.5;}
	.st3{fill:none;}
	.st4{fill:#0A72BA;}
</style>
<g>
	<line class="st0" x1="8.86" y1="8.53" x2="5.71" y2="8.53"/>
	<g>
		<line class="st0" x1="19.12" y1="8.53" x2="16.25" y2="8.53"/>
		<line class="st0" x1="29.38" y1="8.53" x2="26.79" y2="8.53"/>
		<line class="st0" x1="39.63" y1="8.53" x2="37.34" y2="8.53"/>
		<line class="st0" x1="49.89" y1="8.53" x2="47.88" y2="8.53"/>
	</g>
	<line class="st0" x1="60.15" y1="8.53" x2="58.42" y2="8.53"/>
	<line class="st0" x1="8.86" y1="18.96" x2="5.71" y2="18.96"/>
	<g>
		<line class="st0" x1="19.12" y1="18.96" x2="16.25" y2="18.96"/>
		<line class="st0" x1="29.38" y1="18.96" x2="26.79" y2="18.96"/>
		<line class="st1" x1="39.63" y1="18.96" x2="37.34" y2="18.96"/>
		<line class="st0" x1="49.89" y1="18.96" x2="47.88" y2="18.96"/>
	</g>
	<line class="st0" x1="60.15" y1="18.96" x2="58.42" y2="18.96"/>
	<line class="st0" x1="8.86" y1="29.38" x2="5.71" y2="29.38"/>
	<g>
		<line class="st0" x1="19.12" y1="29.38" x2="16.25" y2="29.38"/>
		<path class="st1" d="M37.34,29.38"/>
		<path class="st1" d="M39.63,29.38"/>
		<line class="st0" x1="49.89" y1="29.38" x2="47.88" y2="29.38"/>
	</g>
	<line class="st0" x1="60.15" y1="29.38" x2="58.42" y2="29.38"/>
	<line class="st0" x1="8.86" y1="39.8" x2="5.71" y2="39.8"/>
	<g>
		<line class="st1" x1="19.12" y1="39.8" x2="16.25" y2="39.8"/>
		<line class="st1" x1="29.38" y1="39.8" x2="26.79" y2="39.8"/>
		<line class="st1" x1="39.63" y1="39.8" x2="37.34" y2="39.8"/>
		<line class="st0" x1="49.89" y1="39.8" x2="47.88" y2="39.8"/>
	</g>
	<line class="st0" x1="60.15" y1="39.8" x2="58.42" y2="39.8"/>
	<line class="st0" x1="8.86" y1="50.23" x2="5.71" y2="50.23"/>
	<g>
		<line class="st0" x1="19.12" y1="50.23" x2="16.25" y2="50.23"/>
		<line class="st0" x1="29.38" y1="50.23" x2="26.79" y2="50.23"/>
		<line class="st0" x1="39.63" y1="50.23" x2="37.34" y2="50.23"/>
		<line class="st1" x1="49.89" y1="50.23" x2="47.88" y2="50.23"/>
	</g>
	<line class="st0" x1="60.15" y1="50.23" x2="58.42" y2="50.23"/>
	<line class="st0" x1="8.86" y1="60.65" x2="5.71" y2="60.65"/>
	<g>
		<line class="st0" x1="19.12" y1="60.65" x2="16.25" y2="60.65"/>
		<line class="st0" x1="29.38" y1="60.65" x2="26.79" y2="60.65"/>
		<line class="st0" x1="39.63" y1="60.65" x2="37.34" y2="60.65"/>
		<line class="st0" x1="49.89" y1="60.65" x2="47.88" y2="60.65"/>
	</g>
	<line class="st0" x1="60.15" y1="60.65" x2="58.42" y2="60.65"/>
	<line class="st2" x1="7.29" y1="8.58" x2="7.29" y2="60.65"/>
	<g>
		<path class="st2" d="M17.69,40.84c0,6.6,0,13.21,0,19.81"/>
		<path class="st2" d="M17.69,8.58c0,7.75,0,15.5,0,23.25"/>
		<path class="st2" d="M28.09,37.38c0,7.76,0,15.51,0,23.27"/>
		<path class="st2" d="M28.09,8.58c0,5.71,0,11.42,0,17.13"/>
		<line class="st2" x1="38.5" y1="50.3" x2="38.5" y2="60.64"/>
		<line class="st1" x1="48.9" y1="8.58" x2="48.9" y2="60.65"/>
	</g>
	<line class="st2" x1="59.31" y1="8.58" x2="59.31" y2="60.65"/>
	<path class="st3" d="M25.16,28.72h-1.39c-0.14-0.36-0.49-0.62-0.9-0.62c-0.54,0-0.97,0.44-0.97,0.97c0,0.54,0.44,0.97,0.97,0.97
		c0.43,0,0.78-0.28,0.91-0.67h1.05C24.92,29.15,25.03,28.93,25.16,28.72z"/>
	<path class="st3" d="M32.1,25.99l-0.68,1c0.54,0.26,1,0.61,1.37,1.03l0.93-1.37h7.52l0.66-0.66H32.1z"/>
	<path class="st3" d="M38.49,29.39l0.3-0.3h-0.01l-3.87,0l-0.94,1.39c0.12,0.64,0.13,1.3,0.02,1.95h0.74l1.85-2.72h2.25l0,0
		L38.49,29.39z"/>
	<g>
		<path class="st4" d="M44.29,35.18H19.1c-0.13,0.38-0.48,0.67-0.91,0.67c-0.54,0-0.97-0.44-0.97-0.97c0-0.54,0.44-0.97,0.97-0.97
			c0.41,0,0.76,0.26,0.9,0.62h17.73l0.81-1.25h4.74l-3.56-3.57l0,0h-2.25l-1.85,2.72h-9.58c-0.13,0.39-0.48,0.67-0.91,0.67
			c-0.54,0-0.97-0.43-0.97-0.97c0-0.54,0.43-0.97,0.97-0.97c0.41,0,0.76,0.26,0.9,0.62h7.96l1.81-2.67l3.87,0l2.45-2.44h-7.5
			l-1.85,2.72h-8.1c-0.13,0.39-0.48,0.67-0.91,0.67c-0.54,0-0.97-0.44-0.97-0.97c0-0.54,0.44-0.97,0.97-0.97
			c0.41,0,0.76,0.26,0.9,0.62h6.48l1.86-2.72h9.78l7.04-7.03L38.5,8.56L7.29,39.84l10.39,10.38l10.49-10.38L48.9,60.65l10.41-10.42
			L44.29,35.18z"/>
		<path class="st3" d="M36.82,34.52H19.09c-0.14-0.36-0.49-0.62-0.9-0.62c-0.54,0-0.97,0.43-0.97,0.97c0,0.54,0.44,0.97,0.97,0.97
			c0.43,0,0.78-0.28,0.91-0.67h25.19h0.07l-1.94-1.91h-0.04h-4.74L36.82,34.52z"/>
	</g>
</g>
<g id="Layer_2">
	<g>
		<path class="st4" d="M81.5,42.6h9.9v2.81h-6.85v4.53h5.81v2.81h-5.81v5.36h6.99v2.81H81.5V42.6z"/>
		<path class="st4" d="M96.03,42.55h3.05v8.53l6.34-8.53H109l-6.85,8.82l7.82,9.55h-3.7l-7.19-8.85v8.85h-3.05V42.55z"/>
		<path class="st4" d="M115.83,49.58v11.34h-2.81V41.98h0.27l10.16,12.12V42.6h2.81v18.94h-0.29L115.83,49.58z"/>
		<path class="st4" d="M131.69,42.6h3.05v18.32h-3.05V42.6z"/>
		<path class="st4" d="M152.23,59.93c-0.23,0.14-0.42,0.26-0.59,0.35c-0.17,0.09-0.32,0.17-0.45,0.22
			c-1.37,0.69-2.82,1.04-4.36,1.04c-1.26,0-2.42-0.24-3.5-0.73c-1.07-0.49-2-1.16-2.78-2.02c-0.78-0.86-1.39-1.88-1.83-3.07
			c-0.44-1.19-0.65-2.48-0.65-3.86c0-1.41,0.23-2.71,0.68-3.92c0.45-1.21,1.07-2.25,1.86-3.14c0.79-0.88,1.73-1.58,2.82-2.08
			c1.09-0.5,2.26-0.75,3.52-0.75c0.84,0,1.65,0.11,2.44,0.34c0.31,0.09,0.57,0.17,0.8,0.25c0.23,0.08,0.44,0.17,0.64,0.27
			c0.2,0.1,0.41,0.23,0.63,0.36c0.22,0.14,0.47,0.31,0.76,0.52l-0.29,3.54c-0.18-0.17-0.34-0.33-0.48-0.47
			c-0.15-0.14-0.28-0.26-0.41-0.36c-0.56-0.5-1.21-0.89-1.94-1.16c-0.73-0.27-1.45-0.4-2.18-0.4c-0.84,0-1.61,0.17-2.32,0.51
			c-0.71,0.34-1.32,0.81-1.84,1.41s-0.92,1.31-1.21,2.13c-0.29,0.82-0.44,1.72-0.44,2.69c0,0.99,0.15,1.9,0.45,2.74
			c0.3,0.84,0.71,1.56,1.23,2.16c0.52,0.6,1.15,1.07,1.89,1.41c0.73,0.34,1.54,0.51,2.41,0.51c0.73,0,1.44-0.13,2.15-0.39
			c0.29-0.1,0.56-0.21,0.81-0.33c0.25-0.11,0.5-0.26,0.74-0.43c0.24-0.17,0.5-0.37,0.77-0.6c0.27-0.22,0.58-0.51,0.92-0.86
			L152.23,59.93z"/>
	</g>
	<g>
		<path class="st4" d="M65,42.54v-2.64h13.2v2.64h-5.19v18.36h-2.82V42.54H65z"/>
	</g>
</g>
</svg>
